<?xml version="1.0" encoding="UTF-8"?>
<svg id="Capa_1" data-name="Capa 1" xmlns="http://www.w3.org/2000/svg" viewBox="0 0 254.57 350.15">
  <defs>
    <style>
      .cls-1 {
        fill: #c10076;
      }

      .cls-2 {
        fill: #cf6852;
      }
    </style>
  </defs>
  <path class="cls-2" d="m132.84,0C93.14,0,60.96,32.18,60.96,71.88s32.18,71.88,71.88,71.88,71.88-32.18,71.88-71.88S172.54,0,132.84,0Zm0,135.95c-28.38,0-51.39-25.46-51.39-53.84s23.01-51.39,51.39-51.39,51.39,23.01,51.39,51.39-23.01,53.84-51.39,53.84Z"/>
  <path class="cls-1" d="m66.29,179.69c9.13.77,15.1,2.58,29.29,13.52.01.01,3.78,3.38,3.78,3.39,10.03,9.37,23.96,25.12,33.97,35.04,19.44,19.26,39.21,27.89,61.41,25.68h.01c.87.04,1.73.06,2.61.06,31.6,0,57.22-25.61,57.22-57.21s-25.62-57.22-57.22-57.22-57.22,25.61-57.22,57.22c0,1.56.06,3.1.18,4.63-12.84-28.54-30.01-43.85-31.58-45.22-.05-.05-.08-.08-.1-.09h-.01c-11.4-10.5-26.63-16.9-43.34-16.9C29.9,142.59,0,167.06,0,208.92c0,3.1,1.88,22.26,8.2,36.51,14.04,31.61,49.73,80.1,119.02,103.1.35.12.68.23,1.03.35,2.55.83,5.26,1.26,8.08,1.26,1.8,0,3.54-.17,5.23-.52.81-.16,1.6-.36,2.38-.59,1.08-.39,2.15-.8,3.2-1.2,67.38-26.23,83.81-86.69,83.81-86.69l-.13.13c-.44,1.09-1.32,1.95-2.41,2.38l2.41-2.38c.2-.5.32-1.04.32-1.61,0-2.38-1.93-4.3-4.3-4.3-1.78,0-3.31,1.09-3.97,2.64,0,0-22.31,41.14-60.46,61.34-5.61,2.97-11.57,5.49-17.84,7.36-.62.2-1.25.39-1.9.53-2.03.51-4.15.78-6.33.78-1.81,0-3.58-.18-5.28-.53-.01,0-.02,0-.04-.01-.79-.02-2.13-.43-3.76-1.06-.2-.07-.41-.15-.6-.23-6.31-2.5-16.21-7.76-16.21-7.76,0,0-55.22-32.41-75.66-88.35-1.85-7.28-2.53-12.34-1.54-18.88,3.36-22.27,20.55-32.56,33.06-31.49Zm119.34-5.51c20.83,0,37.72,16.88,37.72,37.72s-16.89,37.72-37.72,37.72-37.72-16.89-37.72-37.72,16.89-37.72,37.72-37.72Z"/>
</svg>