<?xml version="1.0" encoding="utf-8"?>
<!-- Generator: Adobe Illustrator 27.2.0, SVG Export Plug-In . SVG Version: 6.00 Build 0)  -->
<svg version="1.1" xmlns="http://www.w3.org/2000/svg" xmlns:xlink="http://www.w3.org/1999/xlink" x="0px" y="0px"
	 viewBox="0 0 208.21 201.64" style="enable-background:new 0 0 208.21 201.64;" xml:space="preserve">
<style type="text/css">
	.st0{display:none;}
	.st1{display:inline;}
	.st2{fill:#CE6752;}
	.st3{fill:#C00076;}
	.st4{display:inline;fill:#C00076;}
	.st5{display:inline;fill:#3C5A9A;}
	.st6{display:inline;fill:#FFFFFF;}
	.st7{fill:#1CA0F2;}
	.st8{fill:#FEFFFF;}
</style>
<g id="Capa_1" class="st0">
	<g class="st1">
		<path class="st2" d="M172.09,30.41c-39.7,0-71.88,32.18-71.88,71.88c0,39.7,32.18,71.88,71.88,71.88s71.88-32.18,71.88-71.88
			C243.97,62.59,211.79,30.41,172.09,30.41z M172.09,166.36c-28.38,0-51.39-25.46-51.39-53.84s23.01-51.39,51.39-51.39
			s51.39,23.01,51.39,51.39S200.47,166.36,172.09,166.36z"/>
		<path class="st3" d="M105.54,210.1c9.13,0.77,15.1,2.58,29.29,13.52c0.01,0.01,3.78,3.38,3.78,3.39
			c10.03,9.37,23.96,25.12,33.97,35.04c19.44,19.26,39.21,27.89,61.41,25.68H234c0.87,0.04,1.73,0.06,2.61,0.06
			c31.6,0,57.22-25.61,57.22-57.21c0-31.61-25.62-57.22-57.22-57.22c-31.6,0-57.22,25.61-57.22,57.22c0,1.56,0.06,3.1,0.18,4.63
			c-12.84-28.54-30.01-43.85-31.58-45.22c-0.05-0.05-0.08-0.08-0.1-0.09c-0.01-0.01-0.01-0.01-0.01-0.01
			c-11.4-10.49-26.63-16.89-43.34-16.89c-35.38,0-65.28,24.46-65.28,66.33c0,3.1,1.88,22.26,8.2,36.51
			c14.04,31.61,49.73,80.1,119.02,103.1c0.35,0.12,0.68,0.23,1.03,0.35c2.55,0.83,5.26,1.26,8.08,1.26c1.8,0,3.54-0.17,5.23-0.52
			c0.81-0.16,1.6-0.36,2.38-0.59c1.08-0.39,2.15-0.8,3.2-1.2c67.38-26.23,83.81-86.69,83.81-86.69l-0.13,0.13
			c-0.44,1.09-1.32,1.95-2.41,2.38l2.41-2.38c0.2-0.5,0.32-1.04,0.32-1.61c0-2.38-1.93-4.3-4.3-4.3c-1.78,0-3.31,1.09-3.97,2.64
			c0,0-22.31,41.14-60.46,61.34c-5.61,2.97-11.57,5.49-17.84,7.36c-0.62,0.2-1.25,0.39-1.9,0.53c-2.03,0.51-4.15,0.78-6.33,0.78
			c-1.81,0-3.58-0.18-5.28-0.53c-0.01,0-0.02,0-0.04-0.01c-0.79-0.02-2.13-0.43-3.76-1.06c-0.2-0.07-0.41-0.15-0.6-0.23
			c-6.31-2.5-16.21-7.76-16.21-7.76s-55.22-32.41-75.66-88.35c-1.85-7.28-2.53-12.34-1.54-18.88
			C75.85,219.32,93.03,209.04,105.54,210.1z M224.88,204.59c20.83,0,37.72,16.88,37.72,37.72c0,20.83-16.89,37.72-37.72,37.72
			c-20.83,0-37.72-16.89-37.72-37.72C187.16,221.47,204.05,204.59,224.88,204.59z"/>
	</g>
</g>
<g id="Capa_2" class="st0">
	<g class="st1">
		<path class="st3" d="M157.41,123.43c-0.53,2.95-1.06,5.86-1.59,8.78c-2.17,12-4.33,24-6.49,36c-0.09,0.48-0.17,0.97-0.25,1.45
			c-0.42,2.39-2.04,3.58-4.46,3.24c-2.91-0.41-5.81-0.93-8.73-1.24c-5.91-0.62-11.82-1.22-17.75-1.65
			c-7.95-0.57-15.92-0.57-23.88-0.31c-9.55,0.32-19.05,1.21-28.51,2.56c-1.26,0.18-2.51,0.39-3.76,0.61
			c-2.58,0.45-4.26-0.72-4.73-3.28c-1.6-8.82-3.19-17.64-4.79-26.47c-1.11-6.17-2.25-12.34-3.3-18.53
			c-0.16-0.94-0.52-1.26-1.44-1.35c-6.47-0.65-12.41-2.84-17.73-6.57c-9.01-6.32-14.7-14.89-16.34-25.79
			c-2.18-14.53,2.47-26.73,13.68-36.21c7.93-6.71,17.29-9.49,27.66-8.73c2.23,0.16,4.44,0.61,6.64,0.93
			c8.9-16.43,22.46-25.97,41.48-25.98c19.02-0.01,32.6,9.48,41.65,26.03c12.58-2.81,24.18-0.48,34.31,7.82
			c8.13,6.67,12.78,15.37,13.91,25.83C195.31,102.07,179.48,121.55,157.41,123.43z M147.37,53.66c-0.03,0.29-0.06,0.35-0.04,0.4
			c0.08,0.34,0.16,0.67,0.25,1.01c1.01,3.87,1.53,7.81,1.47,11.82c-0.03,2.03-1.71,3.67-3.66,3.63c-2.06-0.03-3.57-1.64-3.57-3.77
			c0.01-9.83-3.21-18.49-9.8-25.75c-8.75-9.65-19.76-13.92-32.74-12.79c-7.45,0.65-14.16,3.41-20.01,8.09
			c-8.47,6.78-13.36,15.58-14.57,26.38c-0.17,1.54-0.11,3.12-0.32,4.66c-0.27,1.97-2.01,3.25-3.95,3.07
			c-1.9-0.18-3.28-1.66-3.14-3.67c0.23-3.13,0.6-6.25,0.99-9.36c0.15-1.18,0.52-2.33,0.81-3.61c-1.6-0.22-3.11-0.54-4.62-0.63
			C43.45,52.5,34.3,56.36,27.28,64.94c-8.13,9.95-9.3,24.21-2.84,35.22c6.09,10.38,15.27,15.71,27.3,16.12
			c2.12,0.07,3.46,1.17,3.82,3.26c0.9,5.13,1.79,10.27,2.71,15.4c0.59,3.29,1.21,6.57,1.83,9.86c0.2,1.09,0.42,2.18,0.63,3.3
			c28.34-4.2,56.57-4.19,84.83-0.01c0.08-0.28,0.15-0.5,0.19-0.72c1.67-9.25,3.34-18.5,5-27.75c0.4-2.22,1.68-3.22,3.92-3.36
			c2.18-0.13,4.39-0.27,6.52-0.73c19.58-4.24,30.27-25.73,21.95-43.99c-5.27-11.57-16.94-18.84-29.75-18.47
			C151.37,53.12,149.35,53.46,147.37,53.66z M63.81,165.25c13.11-1.92,26.18-2.91,39.32-2.92c13.17,0,26.27,1,39.4,2.92
			c0.61-3.37,1.2-6.67,1.8-10.04c-27.5-4.06-54.89-4.07-82.34,0C62.61,158.62,63.2,161.88,63.81,165.25z"/>
		<path class="st3" d="M99.55,114.78c0-7.21,0-14.42,0-21.63c0-1.95,1.13-3.39,2.92-3.75c2.21-0.46,4.33,1.29,4.32,3.55
			c0,0.98,0,1.95,0,2.93c0,13.53,0,27.06,0,40.59c0,2.68-2.19,4.42-4.66,3.72c-1.57-0.44-2.57-1.85-2.57-3.68
			C99.55,129.26,99.55,122.02,99.55,114.78z"/>
		<path class="st3" d="M123.39,129.2c0.39-12.54,3.22-23.07,8.76-32.84c1.22-2.16,3.19-2.86,5.06-1.89
			c1.87,0.98,2.53,3.18,1.48,5.03c-5.62,9.95-8.34,20.62-7.94,32.05c0.05,1.5,0.22,2.99,0.4,4.48c0.27,2.19-1.05,4.03-3.15,4.29
			c-1.99,0.26-3.82-1.23-4.02-3.4C123.7,133.92,123.51,130.9,123.39,129.2z"/>
		<path class="st3" d="M82.96,128.94c-0.2,2.67-0.36,5.35-0.6,8.02c-0.2,2.15-2.05,3.64-4.05,3.36c-2.06-0.28-3.4-2.11-3.14-4.24
			c1.2-9.67,0.02-19.05-3.48-28.12c-1.11-2.86-2.58-5.59-3.99-8.33c-0.95-1.85-0.55-3.97,1.15-5.02c1.75-1.08,3.89-0.57,5.04,1.25
			c3.02,4.83,5.08,10.08,6.6,15.54C82.07,117.14,82.84,122.99,82.96,128.94z"/>
	</g>
	<g>
		<path class="st4" d="M90.47,160.09c-8.77,5.82-17.36,11.53-25.97,17.22c-2.58,1.7-3.2,1.61-5.37-0.56
			c-8.97-8.97-17.94-17.93-26.9-26.9c-1.99-1.99-2.01-2.65-0.54-5.06c1.99-3.28,3.92-6.61,5.85-9.92c3.6-6.18,4.9-13.16,6.78-19.93
			c0.14-0.5-0.37-1.37-0.83-1.81c-3.56-3.4-6.09-7.34-6.87-12.29c-0.98-6.23,0.43-11.85,4.64-16.5c3.98-4.39,8.29-8.48,12.48-12.67
			C65.69,59.7,77.65,47.75,89.61,35.8c9.06-9.05,21.17-9.07,30.21-0.07c6.21,6.19,12.42,12.38,18.6,18.6
			c0.82,0.83,1.53,1.28,2.78,0.88c1.25-0.4,2.02-0.89,2.31-2.29c0.77-3.69,1.75-7.33,2.59-11.01c0.33-1.45,1.01-2.44,2.62-2.47
			c1.71-0.03,2.4,1.03,2.75,2.55c0.84,3.67,1.78,7.33,2.6,11.01c0.26,1.18,0.8,1.74,2.02,2.08c4.12,1.12,8.19,2.44,12.29,3.64
			c1.42,0.42,2.39,1.14,2.36,2.74c-0.02,1.51-0.98,2.21-2.3,2.6c-4.22,1.25-8.43,2.51-12.64,3.77c-1.93,0.58-2.21,1.64-0.77,3.08
			c3.87,3.89,7.77,7.75,11.64,11.65c8.74,8.79,8.78,21.02,0.02,29.81c-15.54,15.6-31.26,31.02-46.66,46.76
			c-8.43,8.62-21.3,8.93-29.45,1.03C90.46,160.04,90.28,159.97,90.47,160.09z M94.34,156.43c0.46,0.39,0.96,0.86,1.51,1.27
			c6.21,4.6,14.24,3.82,20.07-2c15.68-15.65,31.33-31.31,46.99-46.97c0.49-0.49,0.97-1,1.41-1.53c4.62-5.49,5-13.55,0.29-18.94
			c-3.67-4.21-8-7.84-12.05-11.75c-0.33,1.29-0.75,2.78-1.08,4.29c-0.33,1.52-1.05,2.59-2.74,2.57c-1.59-0.02-2.29-1.02-2.62-2.47
			c-0.83-3.61-1.79-7.2-2.57-10.82c-0.3-1.41-0.95-2.1-2.34-2.48c-4.06-1.1-8.09-2.35-12.13-3.53c-1.33-0.39-2.25-1.11-2.26-2.63
			c-0.01-1.52,0.87-2.27,2.21-2.66c1.54-0.46,3.08-0.94,4.78-1.46c-0.42-0.48-0.65-0.77-0.91-1.03c-5.8-5.8-11.57-11.63-17.41-17.39
			c-6.16-6.07-15.22-6.2-21.37-0.1c-16.09,15.95-32.07,32-48.08,48.03c-3.25,3.25-4.76,7.24-4.4,11.84c0.29,3.67,1.68,6.86,4.6,9.6
			c0.18-0.57,0.27-0.85,0.35-1.13c2.13-7.56,4.27-15.12,6.4-22.68c1.42-5.02,6.57-7.95,11.72-6.66c4.93,1.24,8.07,6.39,6.93,11.38
			c-0.92,4.06-1.84,8.12-2.76,12.18c0.2,0.15,0.39,0.29,0.59,0.44c0.39-0.57,0.69-1.23,1.17-1.71c9.35-9.39,18.74-18.75,28.1-28.13
			c1.56-1.56,3.3-2.71,5.54-2.97c4.6-0.53,7.89,1.34,10.11,5.98c0.73-0.93,1.19-1.72,1.83-2.31c1.95-1.8,4.3-2.65,6.94-2.33
			c3.69,0.44,6.33,2.42,7.62,5.94c1.32,3.62,0.39,6.82-2.23,9.55c-0.97,1.02-2.05,1.93-3.22,3.03c3.64,1.76,5.68,4.22,6.04,7.89
			c0.37,3.73-1.52,6.45-4.18,8.82c7.3,3.81,6.84,11.32,1.96,16.03C117.39,132.92,106.02,144.67,94.34,156.43z M62.43,172.37
			c1.19-0.76,2.35-1.51,3.52-2.25c10.17-6.47,20.25-13.03,28.78-21.7c10.22-10.39,20.6-20.63,30.9-30.94
			c0.49-0.49,1.01-0.98,1.38-1.55c1.32-2.03,0.36-4.58-1.94-5.35c-1.83-0.61-3.14,0.2-4.37,1.44c-6.01,6.04-12.04,12.05-18.07,18.07
			c-0.4,0.4-0.78,0.84-1.23,1.17c-1.17,0.85-2.4,0.85-3.44-0.17c-1.04-1.01-1.06-2.25-0.27-3.44c0.34-0.52,0.84-0.94,1.28-1.38
			c8.3-8.3,16.6-16.6,24.9-24.9c0.45-0.45,1.12-0.83,1.28-1.36c0.37-1.25,0.97-2.78,0.56-3.83c-0.42-1.06-1.93-2.3-3-2.34
			c-1.29-0.04-2.89,0.82-3.87,1.79c-8.07,7.91-16.02,15.93-24.01,23.91c-0.49,0.49-0.98,1.01-1.57,1.35
			c-1.18,0.68-2.52,0.59-3.17-0.56c-0.47-0.82-0.4-2.08-0.23-3.09c0.1-0.57,0.87-1.03,1.36-1.52
			c10.93-10.93,21.87-21.86,32.79-32.81c0.66-0.66,1.54-1.41,1.65-2.22c0.17-1.19,0.05-2.63-0.5-3.67c-0.67-1.29-2.17-1.83-3.61-1.3
			c-1.01,0.37-1.99,1.06-2.77,1.83c-10.96,10.9-21.88,21.84-32.82,32.77c-0.45,0.45-0.86,0.94-1.37,1.3
			c-1.24,0.86-2.51,0.86-3.58-0.27c-1-1.07-0.98-2.27-0.07-3.42c0.35-0.44,0.78-0.83,1.18-1.23c8.43-8.43,16.87-16.87,25.3-25.3
			c0.49-0.49,1.24-0.96,1.35-1.54c0.24-1.28,0.5-2.74,0.1-3.9c-0.5-1.48-2.05-2.13-3.59-1.75c-1.03,0.25-2.1,0.87-2.86,1.62
			C95.54,82.6,88.73,89.45,81.9,96.28c-5.18,5.17-10.37,10.34-15.52,15.53c-1.05,1.05-2.21,1.56-3.55,0.83
			c-1.32-0.72-1.57-1.89-1.21-3.4c1.63-6.85,3.15-13.72,4.72-20.58c0.64-2.81-0.51-5.07-2.89-5.67c-2.65-0.66-4.73,0.64-5.53,3.49
			c-2.41,8.53-4.73,17.08-7.23,25.58c-2.16,7.34-4.21,14.75-6.91,21.9c-1.72,4.53-4.54,8.65-6.85,12.91
			C45.34,155.29,53.81,163.76,62.43,172.37z M149.16,54.06c-0.2,0.11-0.4,0.23-0.6,0.34c-0.08,0.36-0.19,0.72-0.23,1.08
			c-0.28,2.53-1.7,3.87-4.18,4.36c-1.59,0.31-3.13,0.9-4.69,1.37c1.29,0.77,2.51,1.3,3.78,1.49c3.23,0.5,5.08,2.19,5.3,5.52
			c0,0.05,0.19,0.09,0.29,0.13c0.05-0.03,0.14-0.05,0.15-0.08c0.1-0.36,0.25-0.71,0.28-1.08c0.26-2.48,1.72-3.72,4.09-4.21
			c1.62-0.33,3.18-0.91,4.77-1.38c-0.8-0.62-1.6-0.91-2.41-1.12C152.4,59.62,148.82,59.08,149.16,54.06z"/>
		<path class="st4" d="M146.12,163.35c0.01-5.01,4.2-9.18,9.13-9.09c4.9,0.09,9,4.22,9.03,9.09c0.03,5-4.08,9.11-9.12,9.12
			C150.07,172.47,146.11,168.47,146.12,163.35z M155.15,167.14c2.14,0,3.88-1.7,3.86-3.78c-0.02-2.02-1.91-3.85-3.92-3.8
			c-2.02,0.05-3.66,1.73-3.68,3.77C151.38,165.55,152.94,167.14,155.15,167.14z"/>
		<path class="st4" d="M52.97,43.23c-0.88,0-1.77,0.05-2.64-0.01c-1.58-0.11-2.44-1.11-2.48-2.58c-0.04-1.41,0.84-2.48,2.25-2.6
			c1.94-0.17,3.91-0.19,5.85,0c1.47,0.14,2.41,1.2,2.29,2.74c-0.12,1.49-1.05,2.38-2.61,2.44C54.73,43.27,53.85,43.24,52.97,43.23z"
			/>
		<path class="st4" d="M37.37,43.24c-0.82,0-1.64,0.03-2.46-0.01c-1.59-0.06-2.49-1.02-2.57-2.48c-0.09-1.5,0.82-2.59,2.33-2.71
			c1.94-0.15,3.91-0.17,5.84,0.03c1.37,0.14,2.27,1.16,2.2,2.63c-0.07,1.52-0.97,2.43-2.51,2.53
			C39.26,43.29,38.31,43.23,37.37,43.24z"/>
		<path class="st4" d="M42.73,48.39c0-0.94-0.05-1.89,0.01-2.82c0.1-1.38,0.88-2.18,2.26-2.32c1.36-0.14,2.55,0.44,2.69,1.77
			c0.22,2.22,0.22,4.49,0.01,6.7c-0.13,1.34-1.32,1.91-2.68,1.79c-1.38-0.13-2.18-0.92-2.28-2.3
			C42.68,50.27,42.73,49.33,42.73,48.39z"/>
		<path class="st4" d="M47.93,33c0,0.88,0.11,1.77-0.02,2.63c-0.25,1.55-1.17,2.51-2.84,2.38c-1.57-0.12-2.34-1.08-2.36-2.63
			c-0.02-1.69-0.03-3.39,0.01-5.08c0.04-1.54,0.84-2.46,2.42-2.56c1.6-0.1,2.49,0.81,2.74,2.27c0.17,0.97,0.03,2,0.03,3
			C47.92,33,47.93,33,47.93,33z"/>
		<path class="st4" d="M177.55,140.66c-0.15,1.54-1.63,2.71-3.16,2.51c-1.46-0.19-2.61-1.62-2.45-3.05
			c0.16-1.46,1.56-2.66,2.99-2.55C176.47,137.68,177.7,139.13,177.55,140.66z"/>
	</g>
	<g>
		<path class="st4" d="M29.77,55.57c-0.45-2.91,1.59-4.09,3.4-5.37c4.73-3.34,10.15-4.94,15.79-5.57
			c15.94-1.79,31.43,0.13,46.2,6.56c3.22,1.4,6.17,3.41,9.52,5.3c4.01-3.33,8.91-6.03,14.28-7.53c6.17-1.72,12.48-2.93,18.76-4.23
			c1.31-0.27,2.01-0.69,2.5-1.97c3.08-8.08,6.25-16.13,9.42-24.18c2.41-6.11,8.89-9.06,14.96-6.85c6.34,2.31,9.52,8.77,7.22,15.12
			c-2.21,6.1-4.64,12.11-7.04,18.33c0.63,0.22,1.25,0.39,1.82,0.65c3.1,1.39,6.29,2.62,9.24,4.28c2.75,1.55,2.64,1.76,3.48,5.7
			c3.6,0,7.25-0.01,10.91,0c3.96,0.01,4.92,0.94,4.92,4.83c0,35.38,0,70.76,0,106.14c0,0.46,0.01,0.92-0.02,1.38
			c-0.18,3.04-2.23,4.34-5.15,3.49c-7.1-2.07-14.17-4.3-21.37-5.96c-9.16-2.11-18.51-2.95-27.91-3.28c-9.08-0.32-16.63,3-23.18,9.04
			c-1.06,0.98-2.06,2.03-3.16,2.97c-5.98,5.13-14.21,5.06-20.11-0.17c-1.52-1.35-2.95-2.81-4.48-4.15
			c-6.38-5.6-13.8-8.01-22.29-7.65c-16.62,0.69-32.85,3.33-48.51,9.11c-2.98,1.1-5.26-0.49-5.3-3.71
			c-0.06-4.66-0.02-9.32-0.02-13.98c0-30.98,0-61.96,0-92.94c0-4.38,0.97-5.36,5.28-5.36C22.49,55.57,26.02,55.57,29.77,55.57z
			 M162.26,52.09c-0.49,1.17-0.8,1.89-1.09,2.61c-4.6,11.71-9.18,23.42-13.82,35.11c-0.42,1.06-1.09,2.11-1.89,2.93
			c-4.43,4.48-8.96,8.86-13.42,13.31c-1.21,1.21-2.56,1.99-4.22,1.32c-1.61-0.65-2.18-2.06-2.26-3.81
			c-0.28-6.49-0.68-12.97-0.95-19.46c-0.04-1.01,0.21-2.09,0.58-3.04c3.47-9.05,7-18.08,10.51-27.12c0.22-0.57,0.4-1.16,0.7-2.06
			c-3.01,0.61-5.72,1.04-8.37,1.72c-6.5,1.66-12.85,3.71-18.25,7.93c-1.29,1.01-1.82,2.14-1.81,3.83
			c0.06,27.04,0.04,54.07,0.04,81.11c0,0.7,0,1.39,0,2.41c9.91-5.75,20.53-8.18,31.46-9.37c10.95-1.19,21.82-1.04,32.52,3.3
			c0-1.13,0-1.9,0-2.67c0-15.42,0-30.84,0-46.26c0-11.94-0.03-23.89,0.03-35.83c0.01-1.45-0.4-2.37-1.75-2.88
			C167.65,54.18,165.04,53.16,162.26,52.09z M100.54,148.47c0-0.8,0-1.59,0-2.37c0-25.53,0-51.06,0-76.6c0-7.75-0.09-7.9-7.17-11.38
			c-0.53-0.26-1.06-0.52-1.6-0.75c-11.29-4.8-23.1-6.85-35.32-6.43c-6.19,0.21-12.27,1.15-17.91,4c-1.39,0.7-1.94,1.51-1.94,3.14
			c0.06,27.44,0.04,54.87,0.05,82.31c0,0.68,0.06,1.37,0.08,1.81C58.9,135.46,79.91,138.8,100.54,148.47z M21.02,162.93
			c1.84-0.56,3.45-1.07,5.07-1.54c11.88-3.42,24.01-5.48,36.33-6.2c5.48-0.32,11.02-0.56,16.44,0.86
			c7.52,1.97,13.68,6.18,19.15,11.53c1.75,1.71,3.65,2.9,6.21,2.94c2.71,0.05,4.75-1.12,6.59-2.97
			c8.45-8.49,18.43-13.03,30.68-12.56c12.23,0.47,24.26,2.11,36.12,5.04c3.09,0.76,6.14,1.67,9.31,2.53c0-33.22,0-66.26,0-99.49
			c-2.04,0-3.93,0-5.82,0c-2.63,0-2.63,0-2.63,2.69c0,27.04,0,54.08,0,81.12c0,0.79,0.04,1.58-0.06,2.36
			c-0.44,3.39-3.31,4.48-6.22,2.71c-2.66-1.62-5.46-3.21-8.42-4.06c-9.12-2.61-18.45-2.39-27.69-0.8
			c-10.74,1.85-21.02,5.07-29.63,12.23c-1.86,1.54-3.57,1.43-5.2-0.41c-2.83-3.2-6.42-5.17-10.26-6.76
			c-10.56-4.38-21.64-6.23-33.02-6.12c-8.13,0.08-16.1,0.95-22.88,6.28c-1.84,1.45-4.51,0.34-5.22-1.94
			c-0.3-0.98-0.33-2.07-0.33-3.1c-0.02-27.11-0.01-54.21-0.01-81.32c0-0.89,0-1.78,0-2.71c-3.02,0-5.73,0-8.51,0
			C21.02,96.47,21.02,129.53,21.02,162.93z M150.45,36.14c-5.06,12.96-10.03,25.68-15.05,38.54c3.09,1.16,5.94,2.24,8.9,3.35
			c5.05-12.93,10.02-25.65,15.04-38.52C156.29,38.35,153.49,37.29,150.45,36.14z M161.59,32.53c1.16-2.89,2.35-5.57,3.3-8.33
			c0.77-2.24-0.43-4.55-2.58-5.51c-2-0.9-4.68-0.25-5.64,1.69c-1.4,2.84-2.53,5.83-3.82,8.87
			C155.87,30.38,158.66,31.43,161.59,32.53z M132.62,81.23c-1.79,4.88-0.17,9.49-0.14,14.17c3.02-3.62,7.69-5.74,9.16-10.76
			C138.56,83.48,135.77,82.42,132.62,81.23z"/>
		<path class="st4" d="M62.31,91.09c7.95,0.57,15.75,1.47,23.21,4.25c1.89,0.71,3.74,1.6,5.48,2.62c1.77,1.03,2.18,3.07,1.21,4.8
			c-0.95,1.69-2.88,2.24-4.75,1.34c-12.05-5.8-24.7-6.42-37.65-4.27c-2.24,0.37-3.98-0.22-4.66-1.9c-0.64-1.57-0.28-3.01,1.03-4.07
			c0.58-0.47,1.39-0.8,2.13-0.9C52.97,92.29,57.64,91.7,62.31,91.09z"/>
		<path class="st4" d="M62.12,121.59c8.31,0.43,16.39,1.5,24.15,4.48c1.64,0.63,3.24,1.43,4.76,2.33c1.74,1.04,2.17,3.09,1.19,4.81
			c-0.98,1.71-2.9,2.29-4.75,1.35c-10.12-5.13-20.95-5.87-32.01-5.13c-1.89,0.13-3.76,0.53-5.63,0.86c-2.5,0.44-4.44-0.52-4.88-2.47
			c-0.48-2.11,0.81-4.02,3.36-4.43C52.89,122.67,57.51,122.18,62.12,121.59z"/>
		<path class="st4" d="M69.86,107.12c6.74,0.78,14.06,2.07,20.76,5.69c1.56,0.84,2.25,2.13,2.09,3.87
			c-0.14,1.47-0.94,2.51-2.35,2.79c-0.83,0.17-1.9,0.14-2.61-0.25c-5.82-3.16-12.19-4.25-18.64-5.01c-1.85-0.22-3.55-0.63-4.09-2.71
			C64.33,108.84,66.16,106.94,69.86,107.12z"/>
		<path class="st4" d="M61.86,76.37c2.03,0,4.07-0.07,6.1,0.02c2.25,0.09,3.65,1.59,3.56,3.61c-0.09,2.06-1.61,3.58-3.78,3.41
			c-6.45-0.52-12.83-0.35-19.15,1.17c-1.59,0.38-3.33-1.02-3.65-2.61c-0.38-1.89,0.67-3.77,2.69-4.17c3.14-0.61,6.33-1.02,9.52-1.38
			c1.55-0.17,3.14-0.03,4.72-0.03C61.86,76.39,61.86,76.38,61.86,76.37z"/>
		<path class="st4" d="M73.16,62.09c5.76,0.98,11.79,2.22,17.24,5.33c2.07,1.18,2.73,3.22,1.75,4.97c-1,1.77-3.01,2.18-5.14,0.99
			c-4.61-2.56-9.67-3.59-14.79-4.49c-2.13-0.37-3.48-2.08-3.26-3.99C69.17,63.14,70.74,61.99,73.16,62.09z"/>
		<path class="st4" d="M57.74,60.8c0.92,0.39,2.41,0.59,3.13,1.44c0.71,0.83,1.02,2.39,0.82,3.52c-0.26,1.52-1.63,2.19-3.23,2.37
			c-3.11,0.34-6.22,0.76-9.32,1.21c-2.05,0.3-3.64-0.55-4.15-2.35c-0.55-1.94,0.43-3.99,2.48-4.44
			C50.72,61.84,54.03,61.41,57.74,60.8z"/>
		<path class="st4" d="M82.24,79.12c3,1.4,6.09,2.65,8.98,4.25c1.59,0.88,1.78,3.09,0.82,4.54c-0.96,1.46-2.79,1.85-4.53,1.11
			c-2.15-0.91-4.33-1.76-6.54-2.53c-1.92-0.67-2.95-2.13-2.65-4.01C78.63,80.56,80.14,79.36,82.24,79.12z"/>
		<path class="st4" d="M52.47,107.18c2.69,0.05,4.15,1.32,4.3,3.16c0.16,2.09-0.91,3.5-3,3.9c-1.6,0.31-3.21,0.6-4.82,0.91
			c-1.78,0.35-3.67-0.87-4.2-2.71c-0.43-1.5,0.46-3.5,2.07-3.99C48.87,107.83,51.02,107.5,52.47,107.18z"/>
	</g>
	<g>
		<path class="st4" d="M134.95,142.33c-11.24,0-22.68,0-34.34,0c1.72,5.55,1.35,10.79-2.33,15.48c-2.23,2.84-5.14,4.68-8.64,5.49
			c-7.15,1.65-14.35-1.87-17.5-8.48c-3.39-7.13-1.16-14.33,5.98-19.91c-2.82-11.75-5.63-23.36-8.4-34.98
			c-3.91-16.34-7.79-32.69-11.68-49.04c-0.58-2.44-1.84-3.47-4.35-3.48c-5.13-0.02-10.27,0-15.4-0.01
			c-3.28-0.01-5.35-1.84-5.35-4.69c0-2.97,2.05-4.81,5.42-4.82c5.02-0.01,10.04-0.02,15.06,0c7.26,0.03,12.21,3.95,13.89,10.99
			c0.63,2.6,1.36,5.19,1.86,7.81c0.25,1.3,0.78,1.63,2.04,1.62c11.46-0.04,22.93-0.03,34.39-0.03c21.39,0,42.78,0.08,64.16-0.05
			c3.71-0.02,6.26,2.83,5.3,6.74c-4.35,17.76-8.52,35.57-12.75,53.36c-0.86,3.62-2.26,4.73-5.97,4.73c-23.04,0-46.08,0-69.13,0
			c-0.66,0-1.33,0-2.2,0c0.55,2.24,0.93,4.25,1.53,6.2c0.66,2.14,2.59,3.42,4.99,3.45c3.19,0.04,6.39,0.01,9.58,0.01
			c16.03,0,32.05-0.01,48.08,0.01c8.07,0.01,14.3,5.16,15.75,12.93c1.63,8.72-4.68,16.92-13.85,17.99
			c-8.44,0.99-16.54-5.93-16.79-14.5C134.25,146.92,134.72,144.66,134.95,142.33z M105.89,67.86c0.48,6.06,0.96,11.99,1.44,17.95
			c7.36,0,14.51,0,21.77,0c0.47-6.03,0.94-11.95,1.41-17.95C122.19,67.86,114.12,67.86,105.89,67.86z M71.99,67.82
			c0.04,0.48,0.04,0.76,0.1,1.02c1.26,5.31,2.55,10.62,3.77,15.95c0.24,1.04,0.82,1.17,1.71,1.16c6.27-0.03,12.53-0.02,18.8-0.03
			c0.43,0,0.86-0.1,1.43-0.17c-0.49-6.04-0.97-11.96-1.45-17.92C88.13,67.82,80.17,67.82,71.99,67.82z M138.63,85.85
			c7.4,0,14.46,0,21.63,0c1.43-5.99,2.84-11.94,4.29-18.02c-8.25,0-16.26,0-24.5,0C139.58,73.82,139.11,79.74,138.63,85.85z
			 M108.1,95.5c0.45,5.78,0.89,11.34,1.29,16.9c0.07,1.01,0.57,1.19,1.44,1.18c2.45-0.04,4.9-0.01,7.35-0.01c2.84,0,5.68,0,8.7,0
			c0.48-6.09,0.95-12.01,1.43-18.07C121.48,95.5,114.9,95.5,108.1,95.5z M78.6,95.39c0.02,0.47-0.01,0.75,0.06,1.02
			c1.26,5.31,2.54,10.61,3.77,15.93c0.22,0.96,0.65,1.26,1.62,1.25c4.89-0.05,9.79-0.02,14.68-0.03c0.37,0,0.74-0.12,1.23-0.2
			c-0.44-5.72-0.89-11.33-1.3-16.94c-0.08-1.11-0.82-1.02-1.58-1.02c-3.98,0-7.97,0-11.95,0C82.97,95.39,80.82,95.39,78.6,95.39z
			 M136.41,113.56c5.64,0,11.04,0.02,16.45-0.05c0.35,0,0.88-0.61,1-1.03c0.49-1.64,0.86-3.31,1.25-4.97
			c0.94-3.97,1.87-7.95,2.83-12.02c-6.78,0-13.36,0-20.09,0C137.38,101.5,136.91,107.39,136.41,113.56z M86.05,154.21
			c3.27,0.06,6.01-2.59,6.09-5.88c0.08-3.21-2.67-6.05-5.9-6.08c-3.31-0.04-6.03,2.61-6.05,5.89
			C80.17,151.49,82.74,154.16,86.05,154.21z M155.63,148.43c0.08-3.35-2.43-6.05-5.74-6.17c-3.33-0.12-6.15,2.6-6.19,5.95
			c-0.04,3.17,2.61,5.9,5.8,5.99C152.84,154.3,155.55,151.75,155.63,148.43z"/>
	</g>
	<g>
		<path class="st4" d="M104.1,176.48c-41.87,0.01-75.65-33.81-75.65-75.73c0-41.73,33.79-75.54,75.55-75.6
			c41.99-0.05,75.77,33.78,75.76,75.88C179.76,142.73,145.92,176.47,104.1,176.48z M39.82,100.85
			c0.03,35.57,28.82,64.31,64.38,64.26c35.47-0.05,64.12-28.7,64.2-64.18c0.08-35.54-28.68-64.35-64.25-64.37
			C68.58,36.53,39.8,65.3,39.82,100.85z"/>
		<path class="st4" d="M115.55,100.86c-0.01,6.38-5.19,11.47-11.59,11.41c-6.26-0.06-11.29-5.18-11.28-11.47
			c0.01-6.37,5.19-11.47,11.59-11.4C110.53,89.46,115.56,94.57,115.55,100.86z"/>
		<path class="st4" d="M153.55,100.81c0.01,6.28-5.02,11.4-11.28,11.46c-6.38,0.06-11.58-5.06-11.59-11.42
			c-0.02-6.35,5.18-11.5,11.55-11.45C148.5,89.43,153.54,94.52,153.55,100.81z"/>
		<path class="st4" d="M66.07,112.27c-6.27-0.01-11.34-5.04-11.4-11.34c-0.06-6.38,5.06-11.55,11.44-11.54
			c6.27,0.01,11.35,5.05,11.43,11.33C77.62,107.05,72.43,112.27,66.07,112.27z"/>
	</g>
</g>
<g id="Capa_3">
	<g class="st0">
		<path class="st5" d="M108.81,165.35c-3.12,0-6.24,0-9.36,0c-1.35-0.44-2.77-0.36-4.16-0.53c-2.79-0.35-5.51-0.98-8.22-1.64
			c-3.83-0.93-7.49-2.35-11.07-3.99c-5.4-2.48-10.4-5.61-14.96-9.43c-8.79-7.36-15.32-16.36-19.56-27.01
			c-0.78-1.95-1.49-3.94-2.07-5.95c-0.74-2.56-1.33-5.17-1.77-7.81c-0.41-2.45-0.8-4.92-0.84-7.39c-0.05-2.92-0.12-5.84,0.13-8.77
			c0.19-2.24,0.39-4.48,0.81-6.67c1-5.21,2.5-10.28,4.65-15.14c3.18-7.19,7.44-13.66,12.85-19.37c7.22-7.61,15.76-13.23,25.58-16.87
			c4.92-1.83,10-3.07,15.24-3.64c1.06-0.12,2.22,0.13,3.21-0.52c3.18,0,6.36,0,9.54,0c0.05,0.14,0.16,0.16,0.29,0.18
			c1.81,0.34,3.64,0.43,5.46,0.71c3.1,0.47,6.15,1.12,9.13,2.03c4.05,1.23,7.98,2.79,11.72,4.77c9.5,5.03,17.41,11.9,23.64,20.67
			c2.65,3.74,4.88,7.7,6.72,11.92c1.27,2.91,2.36,5.86,3.21,8.89c0.72,2.56,1.19,5.19,1.65,7.82c0.58,3.33,0.71,6.68,0.82,10.03
			c0.07,2.05-0.15,4.13-0.28,6.2c-0.16,2.49-0.56,4.94-1.01,7.37c-0.85,4.56-2.24,8.98-4.07,13.24c-3.77,8.8-9.14,16.49-16.2,22.96
			c-11.04,10.13-24.04,15.98-38.95,17.62C110.24,165.1,109.47,164.93,108.81,165.35z M112.14,121.08c0-7.52,0.02-15.03-0.02-22.55
			c0-0.87,0.15-1.16,1.09-1.14c3.62,0.06,7.24,0.03,10.85,0.01c0.28,0,0.76,0.25,0.81-0.32c0.19-1.96,0.38-3.92,0.56-5.88
			c0.24-2.71,0.56-5.42,0.4-8.15c-0.01-0.17,0.1-0.35,0.15-0.53c0.23-0.95,0.07-1.15-0.9-1.15c-4.15,0-8.3-0.02-12.44,0.01
			c-0.73,0.01-0.87-0.21-0.86-0.89c0.04-2.9,0-5.8,0.03-8.7c0.02-1.86,0.94-3.15,2.63-3.91c0.93-0.42,1.91-0.49,2.91-0.49
			c2.65,0,5.3-0.01,7.95,0.01c0.57,0.01,0.75-0.15,0.75-0.73c-0.02-4.9-0.02-9.79,0-14.69c0-0.52-0.15-0.72-0.68-0.71
			c-5.82,0.17-11.64-0.25-17.46,0.26c-2.45,0.22-4.73,0.83-6.95,1.77c-4.85,2.07-8.64,7.76-8.6,12.81
			c0.04,4.83,0.02,9.66,0.06,14.49c0.01,0.64-0.16,0.84-0.82,0.84c-2.84-0.04-5.68,0-8.51-0.03c-0.65-0.01-0.94,0.1-0.93,0.85
			c0.04,4.86,0.03,9.73,0.01,14.6c0,0.7,0.2,0.9,0.9,0.89c2.81-0.04,5.61-0.02,8.42-0.02c1.25,0,1.25,0,1.25,1.2
			c0,14.91,0.01,29.81-0.02,44.72c0,0.86,0.26,1.02,1.05,1.02c5.8-0.03,11.6-0.03,17.4,0.01c0.86,0.01,1.01-0.27,1.01-1.06
			C112.13,136.12,112.14,128.6,112.14,121.08z"/>
		<path class="st6" d="M112.14,121.08c0,7.52-0.01,15.03,0.02,22.55c0,0.79-0.15,1.06-1.01,1.06c-5.8-0.04-11.6-0.04-17.4-0.01
			c-0.78,0-1.05-0.16-1.05-1.02c0.03-14.91,0.02-29.81,0.02-44.72c0-1.2,0-1.2-1.25-1.2c-2.81,0-5.61-0.02-8.42,0.02
			c-0.7,0.01-0.9-0.19-0.9-0.89c0.03-4.86,0.03-9.73-0.01-14.6c-0.01-0.75,0.28-0.86,0.93-0.85c2.84,0.03,5.68-0.01,8.51,0.03
			c0.66,0.01,0.83-0.19,0.82-0.84c-0.04-4.83-0.02-9.66-0.06-14.49c-0.04-5.04,3.75-10.74,8.6-12.81c2.22-0.95,4.5-1.56,6.95-1.77
			c5.82-0.51,11.64-0.09,17.46-0.26c0.54-0.02,0.68,0.19,0.68,0.71c-0.02,4.9-0.02,9.79,0,14.69c0,0.58-0.18,0.74-0.75,0.73
			c-2.65-0.03-5.3-0.01-7.95-0.01c-1,0-1.98,0.08-2.91,0.49c-1.69,0.76-2.61,2.05-2.63,3.91c-0.03,2.9,0.01,5.8-0.03,8.7
			c-0.01,0.68,0.13,0.89,0.86,0.89c4.15-0.04,8.3-0.02,12.44-0.01c0.97,0,1.13,0.2,0.9,1.15c-0.04,0.18-0.15,0.35-0.15,0.53
			c0.15,2.73-0.16,5.45-0.4,8.15c-0.17,1.96-0.37,3.92-0.56,5.88c-0.05,0.57-0.53,0.32-0.81,0.32c-3.62,0.02-7.24,0.05-10.85-0.01
			c-0.94-0.02-1.1,0.27-1.09,1.14C112.15,106.05,112.14,113.57,112.14,121.08z"/>
	</g>
	<g>
		<path class="st7" d="M37.07,100.92c0.34-37.57,29.33-63.4,58.35-66.65c19-2.13,36.57,2.44,51.24,14.7
			c16.06,13.42,24.49,31,24.49,52.25c-0.01,36.73-30.21,66.5-66.72,66.64C67.01,168.02,37.07,137.83,37.07,100.92z M81.1,109
			c-1.59,0.38-2.97,0.24-4.34,0.29c-0.58,0.02-1.35-0.36-1.66,0.33c-0.28,0.61,0.03,1.28,0.38,1.86c2.88,4.79,6.89,7.99,12.55,8.85
			c0.38,0.06,0.92-0.05,1.06,0.42c0.17,0.58-0.44,0.77-0.77,0.99c-5.35,3.57-11.24,5.5-17.66,5.75c-1.02,0.04-2.04-0.03-3.06-0.03
			c-0.29,0-0.68-0.05-0.8,0.29c-0.14,0.39,0.25,0.5,0.5,0.62c2.49,1.23,4.88,2.76,7.5,3.59c4.26,1.34,8.61,2.43,13.13,2.64
			c4.56,0.21,9.13,0.04,13.56-0.85c3.6-0.73,7.08-2.06,10.44-3.77c3.44-1.75,6.68-3.72,9.52-6.24c5.07-4.51,9.12-9.81,11.97-16.07
			c2.98-6.54,4.41-13.33,4.45-20.46c0.01-1.13,0.41-1.9,1.27-2.61c2.11-1.76,4.08-3.67,5.76-5.86c0.22-0.29,0.55-0.59,0.31-0.94
			c-0.33-0.48-0.67-0.05-1.04,0.07c-1.78,0.55-3.58,1.05-5.38,1.56c-0.33,0.09-0.76,0.31-0.95-0.13c-0.16-0.37,0.23-0.64,0.47-0.88
			c0.66-0.63,1.41-1.19,2-1.88c1.41-1.64,2.72-3.35,3.34-5.69c-0.41,0.11-0.61,0.12-0.77,0.21c-2.52,1.43-5.14,2.6-7.99,3.22
			c-0.83,0.18-1.57,0.24-2.28-0.42c-1.82-1.7-3.91-2.97-6.33-3.65c-4.09-1.15-8.15-1-11.98,0.77c-3.94,1.81-6.83,4.84-8.31,8.95
			c-0.9,2.49-1.89,5.06-1.2,7.83c0.39,1.56,0.19,1.85-1.4,1.72c-5.86-0.49-11.42-2.03-16.67-4.74C81.2,81.9,76.25,78.33,72.29,73.5
			c-0.64-0.78-1.17-0.8-1.7,0.18c-1.99,3.7-1.97,7.61-0.92,11.49c0.83,3.09,2.22,5.99,5.07,7.86c0.29,0.19,0.64,0.46,0.49,0.86
			c-0.19,0.53-0.68,0.32-1.06,0.27c-1.32-0.15-2.61-0.49-3.75-1.17c-0.49-0.29-0.98-0.43-1.43-0.18c-0.49,0.26-0.26,0.84-0.22,1.27
			c0.08,0.9,0.1,1.86,0.43,2.68c1.67,4.15,3.81,7.88,7.98,10.18C78.39,107.59,79.92,107.68,81.1,109z"/>
		<path class="st8" d="M81.1,109c-1.18-1.32-2.7-1.41-3.92-2.07c-4.18-2.3-6.31-6.03-7.98-10.18c-0.33-0.82-0.35-1.78-0.43-2.68
			c-0.04-0.42-0.27-1,0.22-1.27c0.45-0.24,0.94-0.11,1.43,0.18c1.15,0.68,2.43,1.02,3.75,1.17c0.38,0.04,0.87,0.26,1.06-0.27
			c0.15-0.4-0.21-0.68-0.49-0.86c-2.85-1.87-4.24-4.77-5.07-7.86c-1.04-3.87-1.07-7.79,0.92-11.49c0.53-0.98,1.06-0.96,1.7-0.18
			c3.97,4.83,8.91,8.4,14.44,11.25c5.25,2.71,10.81,4.24,16.67,4.74c1.59,0.13,1.79-0.15,1.4-1.72c-0.69-2.78,0.3-5.34,1.2-7.83
			c1.48-4.11,4.37-7.14,8.31-8.95c3.84-1.77,7.9-1.91,11.98-0.77c2.42,0.68,4.51,1.95,6.33,3.65c0.7,0.66,1.44,0.6,2.28,0.42
			c2.84-0.63,5.47-1.79,7.99-3.22c0.16-0.09,0.36-0.1,0.77-0.21c-0.62,2.34-1.93,4.05-3.34,5.69c-0.59,0.69-1.34,1.24-2,1.88
			c-0.25,0.24-0.63,0.51-0.47,0.88c0.18,0.43,0.62,0.22,0.95,0.13c1.8-0.5,3.6-1,5.38-1.56c0.37-0.11,0.72-0.55,1.04-0.07
			c0.24,0.35-0.1,0.65-0.31,0.94c-1.68,2.19-3.66,4.1-5.76,5.86c-0.85,0.71-1.26,1.48-1.27,2.61c-0.04,7.13-1.47,13.92-4.45,20.46
			c-2.85,6.26-6.9,11.56-11.97,16.07c-2.83,2.52-6.08,4.5-9.52,6.24c-3.36,1.71-6.84,3.05-10.44,3.77c-4.44,0.89-9,1.07-13.56,0.85
			c-4.53-0.21-8.88-1.3-13.13-2.64c-2.62-0.83-5.01-2.37-7.5-3.59c-0.26-0.13-0.64-0.24-0.5-0.62c0.12-0.34,0.51-0.29,0.8-0.29
			c1.02,0,2.04,0.07,3.06,0.03c6.43-0.26,12.32-2.19,17.66-5.75c0.34-0.22,0.95-0.41,0.77-0.99c-0.14-0.47-0.68-0.36-1.06-0.42
			c-5.66-0.86-9.66-4.06-12.55-8.85c-0.35-0.59-0.66-1.26-0.38-1.86c0.32-0.69,1.09-0.31,1.66-0.33
			C78.12,109.24,79.5,109.38,81.1,109z"/>
	</g>
</g>
</svg>
